<svg id="Capa_1" data-name="Capa 1" xmlns="http://www.w3.org/2000/svg" viewBox="0 0 940 1080"><defs><style>.cls-1{fill:#5d358c;}.cls-2{fill:#921c81;}.cls-3{fill:#007cc5;}.cls-4{fill:#1c0c43;}.cls-5{fill:#fff;}</style></defs><path class="cls-1" d="M323.47,331.91C289.05,262.5,204.17,220,127.61,231.35a5.57,5.57,0,0,0-1.49,10.58Z"/><path class="cls-1" d="M291.68,548.47A166.14,166.14,0,0,1,461.24,385.83l332,6.91c15,.3,26.43,14,23.58,28.78A166.18,166.18,0,0,1,650.22,555.93Z"/><path class="cls-2" d="M640.4,661.09,493.48,507.91a98.31,98.31,0,0,0-2.89,139L629.44,791.69a10.7,10.7,0,0,0,16.12-.74c16.41-20.87,48-74.49-5.16-129.86"/><path class="cls-3" d="M368.11,377.21a79,79,0,0,0,23-23.46c17.58-28,20.46-74.38-9.51-104.91-27.13-27.65-70.76-31.71-99.41-14.34-18.35,11.13-26.21,28.39-28.4,33.36-13.31,30.26-4.35,57.38,3.89,87.29,18.87,68.6-22.88,88.29-9.67,156.05,11.91,61,56.37,99.77,64.14,106.54,68.9,60.12,186.18,62.79,292.47,6.09Q486.38,500.52,368.11,377.21"/><path class="cls-4" d="M353.19,312a31.94,31.94,0,1,1,.94-45.16,31.94,31.94,0,0,1-.94,45.16"/><path class="cls-5" d="M318.59,282.59a15.91,15.91,0,1,1,.47-22.49,15.86,15.86,0,0,1-.47,22.49"/><path class="cls-2" d="M353.2,549.53a166.13,166.13,0,0,1,61.27-226.82L702.36,157.28c13-7.5,29.88-1.64,35,12.48a166.15,166.15,0,0,1-73.27,201.09Z"/></svg>