<svg id="Capa_1" data-name="Capa 1" xmlns="http://www.w3.org/2000/svg" viewBox="0 0 940 1080"><path d="M872.9,459H751.1a20.1,20.1,0,0,1-20.1-20.1V317.1A20.1,20.1,0,0,0,710.9,297H589.11A20.09,20.09,0,0,1,569,276.9V155.1A20.11,20.11,0,0,0,548.89,135H427.11A20.11,20.11,0,0,0,407,155.1V276.9a20.09,20.09,0,0,1-20.1,20.1H265.11A20.1,20.1,0,0,0,245,317.1V438.89A20.1,20.1,0,0,1,224.9,459H103.1A20.12,20.12,0,0,0,83,479.11V600.89A20.12,20.12,0,0,0,103.1,621H224.9a20.1,20.1,0,0,1,20.1,20.1V762.9A20.1,20.1,0,0,0,265.11,783H386.89A20.1,20.1,0,0,1,407,803.1V924.9A20.11,20.11,0,0,0,427.11,945H548.89A20.11,20.11,0,0,0,569,924.9V803.1a20.1,20.1,0,0,1,20.1-20.1H710.9A20.1,20.1,0,0,0,731,762.9V641.11A20.1,20.1,0,0,1,751.1,621H872.9A20.11,20.11,0,0,0,893,600.89V479.11A20.11,20.11,0,0,0,872.9,459ZM633.11,654.45a185.27,185.27,0,0,1-261.74,0,168.42,168.42,0,0,1,0-238.16c28.32-28.3,69.41-44.59,112.92-43.48,41.35.65,78.46,16.23,104.43,43.89,45.51,48.47,59.39,136.26,7.5,189.7C570.37,633,531.55,648,492.07,645.87c-33.52-1.63-62.1-15.23-80.51-38.31s-26.68-56.06-22.16-88.33c4.08-29.36,18-53.83,39.07-68.91,27.67-19.77,60.2-17.85,77.17-14.95a18.38,18.38,0,0,1-6.2,36.24c-11.32-1.94-32.77-3.41-49.6,8.61-12.82,9.16-21.35,24.81-24,44.09-3.1,22.14,2.46,45.25,14.49,60.33C452,599.35,471,608.05,493.87,609.16c28.56,1.54,57.65-9.47,76-28.34,36.73-37.82,25.31-103.58-7.9-139-19.1-20.35-46.89-31.81-78.23-32.32-32.72-.52-65.33,11.71-86.34,32.74a131.61,131.61,0,0,0,0,186.17c57.82,57.83,151.92,57.82,209.75,0a18.38,18.38,0,0,1,26,26Z"/></svg>