<svg id="Capa_1" data-name="Capa 1" xmlns="http://www.w3.org/2000/svg" viewBox="0 0 940 1080"><defs><style>.cls-1{fill:#fd0;}.cls-2{fill:#f18700;}</style></defs><path class="cls-1" d="M713,438.89V317.1A20.1,20.1,0,0,0,692.9,297H571.11A20.09,20.09,0,0,1,551,276.9V155.1A20.11,20.11,0,0,0,530.89,135H409.11A20.11,20.11,0,0,0,389,155.1V276.9a20.09,20.09,0,0,1-20.1,20.1H247.11A20.1,20.1,0,0,0,227,317.1V438.89A20.1,20.1,0,0,1,206.9,459H85.1A20.12,20.12,0,0,0,65,479.11V600.89A20.12,20.12,0,0,0,85.1,621H206.9a20.1,20.1,0,0,1,20.1,20.1V762.9A20.1,20.1,0,0,0,247.11,783H368.89A20.1,20.1,0,0,1,389,803.1V924.9A20.11,20.11,0,0,0,409.11,945H530.89A20.11,20.11,0,0,0,551,924.9V803.1a20.1,20.1,0,0,1,20.1-20.1H692.9A20.1,20.1,0,0,0,713,762.9V641.11A20.1,20.1,0,0,1,733.1,621H854.9A20.11,20.11,0,0,0,875,600.89V479.11A20.11,20.11,0,0,0,854.9,459H733.1a20.1,20.1,0,0,1-20.1-20.1"/><path class="cls-2" d="M484.24,708.58a184.48,184.48,0,0,1-130.87-54.13,168.42,168.42,0,0,1,0-238.16c28.32-28.3,69.41-44.59,112.92-43.48,41.35.65,78.46,16.23,104.43,43.89,45.51,48.47,59.39,136.26,7.5,189.7C552.37,633,513.55,648,474.07,645.87c-33.52-1.63-62.1-15.23-80.51-38.31s-26.68-56.06-22.16-88.33c4.08-29.36,18-53.83,39.07-68.91,27.67-19.77,60.2-17.85,77.17-14.95a18.38,18.38,0,0,1-6.2,36.24c-11.32-1.94-32.78-3.41-49.6,8.61-12.82,9.16-21.35,24.81-24,44.09-3.1,22.14,2.46,45.25,14.5,60.33C434,599.35,453,608.05,475.87,609.16c28.56,1.54,57.65-9.47,76-28.34,36.73-37.82,25.31-103.58-7.9-139-19.1-20.35-46.89-31.81-78.23-32.32-32.72-.52-65.33,11.71-86.34,32.74a131.61,131.61,0,0,0,0,186.17c57.82,57.83,151.92,57.82,209.75,0a18.38,18.38,0,0,1,26,26,184.52,184.52,0,0,1-130.87,54.13"/></svg>