<svg id="Capa_1" data-name="Capa 1" xmlns="http://www.w3.org/2000/svg" viewBox="0 0 940 1080"><defs><style>.cls-1{fill:#65b32e;}.cls-2{fill:#c3d200;}</style></defs><path class="cls-1" d="M854,350.8a30.45,30.45,0,0,0-17.83-35.05c-69.56-29.1-233.46-75.66-411.43-9.3C181.59,397.11,104.16,650.92,85.83,738.07a30.52,30.52,0,0,0,21.43,35.73c92.41,26.37,353.36,86.46,553.14-69.73C792.63,600.7,834.31,435.26,854,350.8"/><path class="cls-2" d="M709.31,410.41c-6.82-12.07-20.74-17.16-31.13-11.29L244.43,644c.23-.77.44-1.54.67-2.33a283.83,283.83,0,0,1,29.33-67.12c2.6-4.3,5.35-8.65,8.34-13a287.4,287.4,0,0,1,26.77-33.47c28.84-31.21,65.3-57.39,108.7-78.08A25.89,25.89,0,1,0,396,403.25c-62.12,29.48-111.93,69.15-148.27,118q-4,5.37-7.83,10.92a323.37,323.37,0,0,0-25.49,44.5c-16.44,34.63-24.88,68.17-31,99.76-.13.74-.26,1.44-.39,2.18L95.26,728.22c-10.35,5.86-13.23,20.42-6.41,32.49S109.63,777.86,120,772L347.31,643.66c2.18.8,4.3,1.62,6.51,2.44,43.09,15.84,92.09,29.74,153.21,26.37,65.25-3.74,129.59-26.3,191.11-67.05a25.89,25.89,0,1,0-28.57-43.19C615.75,597.71,560,617.37,504,620.61c-32.86,1.9-61.8-2.25-88.63-9.29-2.44-.62-4.78-1.37-7.18-2L702.9,442.9c10.38-5.85,13.23-20.41,6.41-32.49"/></svg>