<svg id="Capa_1" data-name="Capa 1" xmlns="http://www.w3.org/2000/svg" viewBox="0 0 1920 1080"><defs><style>.cls-1{fill:#fff;}</style></defs><path class="cls-1" d="M285,635.91H185.85V527h97.93c44.06,0,69.16,12.25,69.16,55.08,0,41.63-25.71,53.87-67.94,53.87m-99.15-268.7H280.1c38.56,0,62.43,9.18,62.43,44.07s-27.54,45.29-61.2,45.29H185.85ZM378,486.56c32.44-15.91,50.19-42.22,50.19-86.29,0-74.06-52-105.27-130.37-105.27h-153C121,295,102,315.81,102,339.67V711.19H291.12c90,0,151.79-40.4,151.79-126.69,0-55.09-23.87-82-64.88-97.94"/><path class="cls-1" d="M756.55,567.38a5.76,5.76,0,0,1-5.76,5.76h-34.9a5.75,5.75,0,0,0-5.75,5.76v34.9a5.76,5.76,0,0,1-5.76,5.76H669.49a5.76,5.76,0,0,0-5.76,5.76v34.89A5.78,5.78,0,0,1,658,666H623.07a5.77,5.77,0,0,1-5.76-5.77V625.32a5.76,5.76,0,0,0-5.76-5.76h-34.9a5.75,5.75,0,0,1-5.75-5.76V578.9a5.76,5.76,0,0,0-5.76-5.76h-34.9a5.76,5.76,0,0,1-5.76-5.76V532.49a5.76,5.76,0,0,1,5.76-5.76h34.9A5.76,5.76,0,0,0,570.9,521v-34.9a5.74,5.74,0,0,1,5.75-5.75h34.9a5.76,5.76,0,0,0,5.76-5.76v-34.9a5.76,5.76,0,0,1,5.76-5.76H658a5.77,5.77,0,0,1,5.77,5.76v34.9a5.76,5.76,0,0,0,5.76,5.76h34.89a5.75,5.75,0,0,1,5.76,5.75V521a5.75,5.75,0,0,0,5.75,5.76h34.9a5.76,5.76,0,0,1,5.76,5.76ZM640.17,381.3C529.36,381.3,474,437,474,549.61c0,111.38,55.41,167.7,166.22,167.7S807.09,661,807.09,549.61C807.09,437,751,381.3,640.17,381.3"/><path class="cls-1" d="M883.83,295H841.6V711.19H923V334.78c0-21.42-17.76-39.78-39.18-39.78"/><path class="cls-1" d="M1013.09,387.42H970.86V711.18h81.41V426.59c0-26.32-12.86-39.17-39.18-39.17"/><path class="cls-1" d="M1336.18,387.42c-20.19,0-33.65,9.79-39.78,28.76l-56.3,198.31-65.49-227.07h-90l113.84,323.76h86.3l114.46-323.76Z"/><path class="cls-1" d="M1512.72,426.59c0-26.32-12.85-39.17-39.18-39.17h-42.23V711.19h81.41Z"/><path class="cls-1" d="M1739.05,577.16c0,45.89-27.54,72.84-72.84,72.84-16.08,0-27.35-4.81-34-14.68-6.26,7.32-10.52,17.32-12.7,29.82a5.25,5.25,0,0,1-5.17,4.36,4.68,4.68,0,0,1-.91-.09,5.28,5.28,0,0,1-4.3-6.08c2.87-16.42,9-29.29,18.33-38.32a59.63,59.63,0,0,1-2.22-12.62,5.47,5.47,0,0,1,0-.71c.15-23.65,16.67-38.82,48.94-44.93a364.9,364.9,0,0,0,57-16.42,5.83,5.83,0,0,1,7.92,5.45ZM1681.51,381.3c-74.67,0-116.9,29.37-126.69,89.36h81.4c4.29-15.31,20.2-22.65,49-22.65,33.67,0,50.8,9.18,52.64,27.54,0,17.75-17.75,28.16-52.64,32.44-82,8-138.32,28.77-140.15,106.49,0,71.61,53.85,107.73,131.58,101.6C1764.14,710,1818,670.18,1818,580.83V470.66c-1.84-60-47.13-89.36-136.49-89.36"/><path class="cls-1" d="M1048.13,319.91c0,13.94-11.55,25.23-25.8,25.23s-25.81-11.29-25.81-25.23,11.55-25.23,25.81-25.23a26.19,26.19,0,0,1,7.61,1.12,13.16,13.16,0,0,1,5.29-1.12,12.76,12.76,0,0,1,12.9,12.61,12.3,12.3,0,0,1-1.14,5.18,24.42,24.42,0,0,1,1.14,7.44m-31.37-40.07c-25.35,0-45.9,20.19-45.9,45.09S991.41,370,1016.76,370s45.91-20.18,45.91-45.08-20.55-45.09-45.91-45.09"/><path class="cls-1" d="M1035.23,294.68a13.12,13.12,0,0,0-5.29,1.12,25.56,25.56,0,0,1,17,16.67,12.31,12.31,0,0,0,1.15-5.18,12.77,12.77,0,0,0-12.91-12.61"/><path class="cls-1" d="M1029.94,295.8a12.6,12.6,0,0,0-7.62,11.49,12.77,12.77,0,0,0,12.91,12.62,12.91,12.91,0,0,0,11.76-7.45,25.59,25.59,0,0,0-17-16.66"/><path class="cls-1" d="M1209.87,312.85a5.68,5.68,0,0,0,6.46-7.12,71.12,71.12,0,0,1-.14-37.6A70.05,70.05,0,0,1,1227.53,245a5.72,5.72,0,0,0-2.71-8.82,232.84,232.84,0,0,0-197.38,20,5.72,5.72,0,0,0,1.69,10.49,59.14,59.14,0,0,1,27.45,13.72c15,13.5,21.9,34.43,19.18,55.81a5.69,5.69,0,0,0,8.75,5.5c14.09-9.14,38.87-23.28,63.81-28.22a168,168,0,0,1,61.55-.63"/><path class="cls-1" d="M1228.21,313.93a5.63,5.63,0,0,0,4.12,3.71,124.3,124.3,0,0,1,48.13,21.73c2.68,2,5.19,4.06,7.5,6.11a5.69,5.69,0,0,0,9.41-3.31,89.6,89.6,0,0,0-50.78-96.42,5.69,5.69,0,0,0-6.82,1.55,73.21,73.21,0,0,0-8.79,13.22c-11,21.9-5.9,44-2.77,53.41"/><path class="cls-1" d="M1636.52,631c8.51-7.32,17.57-9.16,28.1-11.31s22.65-4.58,35-13.43c10.74-7.76,19.28-18.63,25.35-32.3a5.25,5.25,0,1,0-9.59-4.27c-5.33,11.93-12.71,21.37-21.93,28-10.44,7.54-20.84,9.62-30.87,11.64-11,2.22-22.32,4.53-32.9,13.68-.75.66-1.47,1.31-2.19,2a36.49,36.49,0,0,0,4.76,10.31,41.3,41.3,0,0,1,4.31-4.36"/><path class="cls-1" d="M674.65,575.28a42.54,42.54,0,0,1-60.1,0,37.71,37.71,0,0,1,0-53.34c6-6,15.36-9.53,24.74-9.38,9,.15,16.93,3.43,22.41,9.26,9.51,10.13,12.79,29,2.26,39.81-5.24,5.41-13.58,8.56-21.77,8.12-6.53-.32-12-2.81-15.34-7s-5-11-4.16-17.29c.78-5.52,3.22-10,6.89-12.63,4.83-3.45,11-3,14.22-2.47A5.26,5.26,0,0,0,645.57,520c-4.85-.83-14.18-1.38-22.11,4.29-6.05,4.31-10,11.32-11.2,19.74-1.28,9.24,1.09,18.7,6.36,25.31s13.46,10.5,23.07,11A39.06,39.06,0,0,0,671.52,569c14.87-15.31,10.9-40.46-2.15-54.35-7.44-7.92-18.06-12.39-29.92-12.57a44.2,44.2,0,0,0-32.34,12.45,48.24,48.24,0,0,0,0,68.24,53.09,53.09,0,0,0,75,0,5.26,5.26,0,0,0-7.44-7.45"/><path class="cls-1" d="M1142.66,804.65a6.6,6.6,0,0,1-5-2.07,8,8,0,0,1-2-5.76V776.43h-33.38v20.69q0,16.68,9.31,24.73t26,8a60.65,60.65,0,0,0,11.3-1,29.48,29.48,0,0,0,9.23-3.25l-8-23.19a13,13,0,0,1-7.53,2.22"/><rect class="cls-1" x="1091.26" y="752.07" width="11.07" height="24.37"/><rect class="cls-1" x="1102.35" y="729.47" width="33.37" height="22.6"/><rect class="cls-1" x="1102.35" y="752.07" width="33.37" height="24.37"/><rect class="cls-1" x="1135.72" y="752.07" width="16.54" height="24.37"/><path class="cls-1" d="M1232.16,779.69h-13a20.57,20.57,0,0,1,.42,4.28Z"/><path class="cls-1" d="M1192.72,784a22,22,0,0,1,.4-4.28h-5.41v16.1h6.13a19.51,19.51,0,0,1-1.12-6.8Z"/><path class="cls-1" d="M1228,750.89a51.53,51.53,0,0,0-22.08-4.73,50.77,50.77,0,0,0-23.41,5.32,41,41,0,0,0-16.4,14.77,39.76,39.76,0,0,0-6,21.71,39.19,39.19,0,0,0,6.05,21.49,41.57,41.57,0,0,0,17.06,15q11,5.46,25.77,5.47,12.1,0,20.75-3.33a38.22,38.22,0,0,0,14.55-9.68l-17.43-17.57a35.36,35.36,0,0,1-7.61,4.43,24.53,24.53,0,0,1-9.23,1.48,21.19,21.19,0,0,1-9.3-1.85,13.15,13.15,0,0,1-5.91-5.54,14.42,14.42,0,0,1-1-2.07h-6.14v-16.1h5.42a15.08,15.08,0,0,1,1.23-3.76,12.15,12.15,0,0,1,4.65-5.17,13.48,13.48,0,0,1,7.16-1.84,13.11,13.11,0,0,1,7.09,1.84,12.76,12.76,0,0,1,4.65,5.17,14.76,14.76,0,0,1,1.29,3.76h13L1219.6,784a21.4,21.4,0,0,0-.41-4.29h-26.07a22.18,22.18,0,0,0-.4,4.29v5a19.45,19.45,0,0,0,1.12,6.79h56c.1-1.18.2-2.48.29-3.9s.15-2.74.15-3.92q0-13.74-6.13-23a38.63,38.63,0,0,0-16.24-14"/><path class="cls-1" d="M1363.27,779.69h-13a21.27,21.27,0,0,1,.42,4.28Z"/><path class="cls-1" d="M1359.06,750.89a51.53,51.53,0,0,0-22.08-4.73,50.87,50.87,0,0,0-23.42,5.32,41.12,41.12,0,0,0-16.39,14.77,39.76,39.76,0,0,0-6,21.71,39.19,39.19,0,0,0,6,21.49,41.5,41.5,0,0,0,17.06,15q11,5.46,25.77,5.47,12.11,0,20.75-3.33a38.11,38.11,0,0,0,14.54-9.68L1358,799.33a35.55,35.55,0,0,1-7.6,4.43,24.62,24.62,0,0,1-9.24,1.48,21.19,21.19,0,0,1-9.3-1.85,13.15,13.15,0,0,1-5.91-5.54,14.42,14.42,0,0,1-1-2.07h-6.14v-16.1h5.41a16,16,0,0,1,1.24-3.76,12.15,12.15,0,0,1,4.65-5.17,13.46,13.46,0,0,1,7.16-1.84,13.11,13.11,0,0,1,7.09,1.84,12.76,12.76,0,0,1,4.65,5.17,14.76,14.76,0,0,1,1.29,3.76h13L1350.71,784a20.69,20.69,0,0,0-.41-4.29h-26.08a22.21,22.21,0,0,0-.39,4.29v5a19.45,19.45,0,0,0,1.12,6.79h56c.1-1.18.2-2.48.29-3.9s.15-2.74.15-3.92q0-13.74-6.13-23a38.63,38.63,0,0,0-16.24-14"/><path class="cls-1" d="M1323.84,784a22,22,0,0,1,.39-4.28h-5.41v16.1H1325a19.51,19.51,0,0,1-1.11-6.8Z"/><path class="cls-1" d="M1456.16,784a33.58,33.58,0,0,0-9.08-4.06,69.76,69.76,0,0,0-9.9-2.07c-3.29-.45-6.32-.81-9.08-1.1a30.44,30.44,0,0,1-6.64-1.34c-1.68-.59-2.51-1.47-2.51-2.65,0-1,.76-1.87,2.28-2.67s4.41-1.18,8.64-1.18a55,55,0,0,1,11.16,1.26,44.8,44.8,0,0,1,12.18,4.65l9.16-22a52.46,52.46,0,0,0-15.21-5,98.44,98.44,0,0,0-17.73-1.62q-13.59,0-22.82,3.77t-13.87,10a22.5,22.5,0,0,0-4.66,13.89,23.39,23.39,0,0,0,2.5,11.45,20,20,0,0,0,6.65,7.16,32.11,32.11,0,0,0,9.16,4,83.77,83.77,0,0,0,10,2c3.3.43,6.32.8,9.08,1.1a33.57,33.57,0,0,1,6.64,1.26c1.68.53,2.53,1.4,2.53,2.58s-.72,2.11-2.15,2.8-4.16,1-8.2,1a60.53,60.53,0,0,1-14.84-1.92,50.39,50.39,0,0,1-13.37-5.32l-9.15,22a58.1,58.1,0,0,0,16.24,5.77,94.82,94.82,0,0,0,20.39,2.21q14,0,23.33-3.76t13.88-10a22.5,22.5,0,0,0,4.58-13.52,23.37,23.37,0,0,0-2.51-11.44,19.85,19.85,0,0,0-6.65-7.16"/><path class="cls-1" d="M1532.66,796.82a12.56,12.56,0,0,1-22.74,0,19.34,19.34,0,0,1-1.77-8.71,19.79,19.79,0,0,1,1.77-8.87,12.57,12.57,0,0,1,22.74,0,19.66,19.66,0,0,1,1.77,8.87,19.21,19.21,0,0,1-1.77,8.71m16.1-45.56a38.38,38.38,0,0,0-19.49-5.1q-11.08,0-17.87,4.43a21.58,21.58,0,0,0-4.29,3.7v4.28l.15,29.54,1.48,29.53v5.24a22.63,22.63,0,0,0,3.17,2.52q6.87,4.5,17.36,4.5a38.82,38.82,0,0,0,19.49-5,37.19,37.19,0,0,0,14.18-14.4q5.32-9.37,5.32-22.37t-5.32-22.38a37.72,37.72,0,0,0-14.18-14.47"/><path class="cls-1" d="M1501.8,811.66q-3.25-9.23-3.25-23.55,0-14.62,3-23.86a27.46,27.46,0,0,1,5.54-10v-6.65h-31.76V857.08h33.38v-34.2a27.81,27.81,0,0,1-6.94-11.22"/><path class="cls-1" d="M1507.26,788.11l-.14-29.54v-4.28a27.46,27.46,0,0,0-5.54,10q-3,9.24-3,23.86,0,14.31,3.25,23.55a27.81,27.81,0,0,0,6.94,11.22v-5.24Z"/><path class="cls-1" d="M1607.1,784a22,22,0,0,1,.39-4.28h-5.41v16.1h6.14a19.28,19.28,0,0,1-1.12-6.8Z"/><path class="cls-1" d="M1642.32,750.89a51.49,51.49,0,0,0-22.07-4.73,50.77,50.77,0,0,0-23.41,5.32,41,41,0,0,0-16.4,14.77,39.68,39.68,0,0,0-6,21.71,39.28,39.28,0,0,0,6,21.49,41.63,41.63,0,0,0,17.06,15q11,5.46,25.77,5.47,12.12,0,20.75-3.33a38.07,38.07,0,0,0,14.55-9.68l-17.43-17.57a35.55,35.55,0,0,1-7.6,4.43,24.53,24.53,0,0,1-9.23,1.48,21.23,21.23,0,0,1-9.31-1.85,13.08,13.08,0,0,1-5.9-5.54,13.41,13.41,0,0,1-1-2.07h-6.14v-16.1h5.42a15.07,15.07,0,0,1,1.22-3.76,12.22,12.22,0,0,1,4.65-5.17,13.52,13.52,0,0,1,7.17-1.84,13.11,13.11,0,0,1,7.09,1.84,12.83,12.83,0,0,1,4.65,5.17,14.74,14.74,0,0,1,1.28,3.76h13L1634,784a20.67,20.67,0,0,0-.42-4.29H1607.5a21.42,21.42,0,0,0-.4,4.29v5a19.22,19.22,0,0,0,1.12,6.79h56q.15-1.77.3-3.9c.09-1.44.15-2.74.15-3.92q0-13.74-6.13-23a38.65,38.65,0,0,0-16.25-14"/><path class="cls-1" d="M1646.53,779.69h-13A21.3,21.3,0,0,1,1634,784Z"/><path class="cls-1" d="M1706.94,756.39V772l-5.18-6.93a29.55,29.55,0,0,1,5.18-8.68v-8.75h-31.76v80.79h33.38v-35.9q0-9.6,4.8-13.51t12.34-3.91c1.18,0,2.33,0,3.46.14s2.44.26,3.91.45V746.16q-11.35,0-19.49,4.73a26,26,0,0,0-6.64,5.5"/><path class="cls-1" d="M1706.94,772V756.39a29.42,29.42,0,0,0-5.18,8.68Z"/><path class="cls-1" d="M1784.62,796.52h3.25v-16.1h-3.46a17.28,17.28,0,0,1,.21,2.66Z"/><path class="cls-1" d="M1784.62,810.26v-8.12a10.59,10.59,0,0,1-4.21,5.83,11.4,11.4,0,0,1-6.28,1.84,8.63,8.63,0,0,1-5.83-1.84,5.87,5.87,0,0,1-2.14-4.65,5.8,5.8,0,0,1,2.44-5.1q2.43-1.69,7.75-1.69h8.27V783.09a17.08,17.08,0,0,0-.21-2.66H1771q-12.55,0-20.75,2.8t-12.18,8.27a22,22,0,0,0-4,13.3,23.56,23.56,0,0,0,13.44,21.7c4.43,2.26,9.94,3.41,16.54,3.41q10.48,0,16.69-4.44a19,19,0,0,0,6.2-7.61V814.1Z"/><path class="cls-1" d="M1806.55,755.47q-11.44-9.3-32.27-9.31a83.47,83.47,0,0,0-19.35,2.36,56.77,56.77,0,0,0-17,6.8l10.64,22a30.92,30.92,0,0,1,9.59-4.65,38.19,38.19,0,0,1,11.08-1.69q8.12,0,11.74,3.09a10.32,10.32,0,0,1,3.41,6.35h3.46v16.1h-3.25v5.61l4.28,9.9a26.59,26.59,0,0,1-1.92,5.83v10.56h31V785q0-20.25-11.45-29.54"/><path class="cls-1" d="M1784.62,802.14v8.12l2.36,3.84v3.76a26.59,26.59,0,0,0,1.92-5.83Z"/></svg>