<svg id="Capa_1" data-name="Capa 1" xmlns="http://www.w3.org/2000/svg" viewBox="0 0 1920 1080"><defs><style>.cls-1{fill:#d20a11;}.cls-2{fill:#f18700;}.cls-3{fill:#006e3b;}.cls-4{fill:#007cc5;}.cls-5{fill:#5e358c;}.cls-6{fill:#65b32e;}.cls-7{fill:#921c81;}.cls-8{fill:#1c0c43;}.cls-9{fill:#fff;}.cls-10{fill:#ffe400;}.cls-11{fill:#c3d200;}</style></defs><path class="cls-1" d="M280.31,506.8H181.87V616.3h99.67c42.44,0,68.28-12.3,68.28-54.13,0-43.06-25.22-55.37-69.51-55.37m-3.69-160.57H181.87v89.82h96c33.83,0,61.52-10.46,61.52-45.52s-24-44.3-62.75-44.3M287.69,692H97.59V318.55c0-24,19.07-44.9,43.06-44.9h153.8c78.75,0,131,31.37,131,105.81,0,44.29-17.84,70.74-50.45,86.73,41.22,16,65.22,43.07,65.22,98.44,0,86.74-62.14,127.34-152.57,127.34"/><path class="cls-2" d="M806.31,529.56c0,112-56.39,168.57-167.78,168.57S471.45,641.52,471.45,529.56c0-113.2,55.7-169.17,167.08-169.17s167.78,56,167.78,169.17"/><path class="cls-3" d="M922.82,313.63V692H841V273.65h42.46c21.52,0,39.37,18.45,39.37,40"/><path class="cls-4" d="M1013.37,366.54c26.45,0,39.37,12.91,39.37,39.37V692H970.92V366.54Z"/><path class="cls-5" d="M1401.49,366.54,1286.45,692H1199.7L1085.28,366.54h90.44l65.82,228.23,56.6-199.32c6.15-19.07,19.68-28.91,40-28.91Z"/><path class="cls-6" d="M1476.19,366.54c26.45,0,39.37,12.91,39.37,39.37V692h-81.82V366.54Z"/><path class="cls-7" d="M1685.22,360.39c-75,0-117.5,29.52-127.34,89.81h81.82c4.31-15.38,20.3-22.76,49.21-22.76,33.84,0,51.06,9.23,52.91,27.68,0,17.84-17.84,28.31-52.91,32.61-82.43,8-139,28.91-140.88,107,0,72,54.14,108.28,132.27,102.12,88-6.15,142.11-46.14,142.11-135.95V450.2c-1.85-60.29-47.37-89.81-137.19-89.81"/><path class="cls-4" d="M970.92,303.73c0-25,20.66-45.32,46.14-45.32s46.14,20.29,46.14,45.32S1042.55,349,1017.06,349s-46.14-20.29-46.14-45.31"/><path class="cls-8" d="M994.1,298.68c0-15.41,12.78-27.91,28.55-27.91s28.55,12.5,28.55,27.91-12.78,27.92-28.55,27.92-28.55-12.5-28.55-27.92"/><path class="cls-9" d="M1015,287.24a16.85,16.85,0,1,1,16.85,16.49A16.66,16.66,0,0,1,1015,287.24"/><path class="cls-2" d="M1217.66,284.42a5.73,5.73,0,0,1-6.5,7.17,168.66,168.66,0,0,0-61.87.63c-25.06,5-50,19.18-64.13,28.36a5.72,5.72,0,0,1-8.8-5.52c2.73-21.49-4.23-42.53-19.28-56.1a59.45,59.45,0,0,0-27.6-13.8,5.74,5.74,0,0,1-1.69-10.53,234.1,234.1,0,0,1,198.4-20.11,5.75,5.75,0,0,1,2.72,8.87,70.1,70.1,0,0,0-11.39,23.25,71.27,71.27,0,0,0,.14,37.78"/><path class="cls-8" d="M1299.11,321.06a5.71,5.71,0,0,1-9.46,3.32q-3.5-3.09-7.54-6.14a124.92,124.92,0,0,0-48.37-21.84,5.64,5.64,0,0,1-4.15-3.73c-3.15-9.5-8.23-31.67,2.79-53.69a72.83,72.83,0,0,1,8.83-13.28,5.72,5.72,0,0,1,6.86-1.57c9.74,4.59,30.28,16.49,42.8,41.5a91.31,91.31,0,0,1,8.24,55.43"/><path class="cls-10" d="M727.56,498.22V455.38a7.07,7.07,0,0,0-7.07-7.07H677.66a7.07,7.07,0,0,1-7.07-7.07V398.41a7.07,7.07,0,0,0-7.07-7.07H620.69a7.07,7.07,0,0,0-7.07,7.07v42.83a7.07,7.07,0,0,1-7.07,7.07H563.71a7.07,7.07,0,0,0-7.06,7.07v42.84a7.08,7.08,0,0,1-7.08,7.07H506.74a7.07,7.07,0,0,0-7.07,7.07v42.83a7.07,7.07,0,0,0,7.07,7.07h42.83a7.07,7.07,0,0,1,7.08,7.07v42.83a7.06,7.06,0,0,0,7.06,7.07h42.84a7.08,7.08,0,0,1,7.07,7.07v42.84a7.08,7.08,0,0,0,7.07,7.07h42.83a7.08,7.08,0,0,0,7.07-7.07V626.3a7.08,7.08,0,0,1,7.07-7.07h42.83a7.06,7.06,0,0,0,7.07-7.07V569.33a7.07,7.07,0,0,1,7.08-7.07h42.83a7.07,7.07,0,0,0,7.07-7.07V512.36a7.07,7.07,0,0,0-7.07-7.07H734.64a7.08,7.08,0,0,1-7.08-7.07"/><path class="cls-2" d="M647.11,593.06a64.87,64.87,0,0,1-46-19,59.22,59.22,0,0,1,0-83.76c10-10,24.41-15.69,39.71-15.29,14.55.22,27.59,5.71,36.73,15.43,16,17,20.88,47.92,2.63,66.72-9.09,9.36-22.74,14.61-36.62,13.87-11.79-.57-21.84-5.35-28.32-13.46s-9.38-19.72-7.79-31.07c1.44-10.33,6.32-18.93,13.74-24.23,9.73-7,21.17-6.29,27.14-5.26a6.46,6.46,0,0,1-2.18,12.74c-4-.68-11.53-1.2-17.45,3-4.5,3.22-7.51,8.73-8.45,15.5-1.09,7.79.87,15.92,5.1,21.22s10.81,8.24,18.83,8.62c10.06.55,20.28-3.33,26.72-10,12.92-13.3,8.91-36.42-2.78-48.86-6.71-7.15-16.48-11.19-27.5-11.36-11.52-.19-23,4.12-30.37,11.51a46.29,46.29,0,0,0,0,65.47,52.22,52.22,0,0,0,73.77,0,6.47,6.47,0,0,1,9.14,9.15,64.93,64.93,0,0,1-46,19"/><path class="cls-6" d="M1128,849.93q-14.76,0-23-7.52T1096.84,820V746.71h24.21v73c0,3.52.93,6.23,2.79,8.15a10.15,10.15,0,0,0,7.61,2.87,15.56,15.56,0,0,0,9.78-3.11l6.52,17.07a26.26,26.26,0,0,1-8.93,4,43.61,43.61,0,0,1-10.78,1.32M1084,767h57.9v18.63H1084Z"/><path class="cls-6" d="M1200.21,849.93q-14.28,0-25.07-5.59a41.17,41.17,0,0,1-16.68-15.28,41.75,41.75,0,0,1-5.9-22.12,42.48,42.48,0,0,1,5.82-22.28,41.33,41.33,0,0,1,15.91-15.21,49.83,49.83,0,0,1,44.94-.31,39.08,39.08,0,0,1,15.6,14.9q5.73,9.71,5.74,23.21c0,.93,0,2-.16,3.18s-.21,2.3-.31,3.34h-67.83V799.64h55.11l-9.32,4.19a23.22,23.22,0,0,0-2.64-11.33,19.4,19.4,0,0,0-7.29-7.53,21.18,21.18,0,0,0-10.87-2.71,21.6,21.6,0,0,0-10.94,2.71,19,19,0,0,0-7.37,7.61,23.89,23.89,0,0,0-2.64,11.56v3.73a23.47,23.47,0,0,0,3,12,19.83,19.83,0,0,0,8.54,7.92,29,29,0,0,0,13,2.71,31.31,31.31,0,0,0,11.72-2,28.57,28.57,0,0,0,9.24-6l12.88,14a37.64,37.64,0,0,1-14.43,10,53.41,53.41,0,0,1-20,3.49"/><path class="cls-6" d="M1342.08,849.93q-14.28,0-25.07-5.59a41.27,41.27,0,0,1-16.69-15.28,41.74,41.74,0,0,1-5.89-22.12,42.48,42.48,0,0,1,5.82-22.28,41.33,41.33,0,0,1,15.91-15.21,49.83,49.83,0,0,1,44.94-.31,39.15,39.15,0,0,1,15.6,14.9q5.73,9.71,5.74,23.21c0,.93-.06,2-.16,3.18s-.21,2.3-.31,3.34h-67.83V799.64h55.1l-9.31,4.19a23.22,23.22,0,0,0-2.64-11.33A19.36,19.36,0,0,0,1350,785a21.15,21.15,0,0,0-10.86-2.71,21.57,21.57,0,0,0-10.94,2.71,19,19,0,0,0-7.38,7.61,24,24,0,0,0-2.63,11.56v3.73a23.47,23.47,0,0,0,3,12,19.83,19.83,0,0,0,8.54,7.92,29,29,0,0,0,13,2.71,31.34,31.34,0,0,0,11.72-2,28.57,28.57,0,0,0,9.24-6l12.88,14a37.64,37.64,0,0,1-14.43,10,53.45,53.45,0,0,1-20,3.49"/><path class="cls-6" d="M1426.67,849.93a81.28,81.28,0,0,1-20.56-2.56q-9.85-2.57-15.6-6.44l8.07-17.38a53.78,53.78,0,0,0,13.58,5.82,55.81,55.81,0,0,0,15.45,2.25q8.37,0,11.87-2A6.19,6.19,0,0,0,1443,824a4.74,4.74,0,0,0-2.72-4.42,23.88,23.88,0,0,0-7.21-2.25q-4.5-.78-9.86-1.55t-10.79-2.1a36.57,36.57,0,0,1-9.93-4,20.08,20.08,0,0,1-7.22-7.14q-2.71-4.5-2.71-11.64a22.54,22.54,0,0,1,4.57-14q4.58-6.06,13.28-9.55t20.8-3.49a83.74,83.74,0,0,1,17.38,1.87,46.84,46.84,0,0,1,14.74,5.43l-8.06,17.23a41,41,0,0,0-12.19-4.89,56.41,56.41,0,0,0-11.87-1.32q-8.09,0-11.8,2.17t-3.73,5.59a5,5,0,0,0,2.72,4.65,24.68,24.68,0,0,0,7.22,2.49c3,.62,6.29,1.16,9.85,1.63a87.33,87.33,0,0,1,10.79,2.1,38.44,38.44,0,0,1,9.86,4,20.69,20.69,0,0,1,7.21,7q2.81,4.42,2.8,11.56a21.71,21.71,0,0,1-4.66,13.74q-4.65,6-13.42,9.39t-21.35,3.41"/><path class="cls-6" d="M1526.17,830.07a20.88,20.88,0,0,0,10.79-2.8,20.62,20.62,0,0,0,7.6-8,28,28,0,0,0,0-24.76,20.26,20.26,0,0,0-18.39-10.71,21.27,21.27,0,0,0-10.87,2.79,20.16,20.16,0,0,0-7.61,7.92,28.86,28.86,0,0,0,0,24.76,19.89,19.89,0,0,0,7.61,8,21.28,21.28,0,0,0,10.87,2.8m4.19,19.87a35.68,35.68,0,0,1-18.47-4.67,30.91,30.91,0,0,1-12.34-14.2q-4.42-9.54-4.43-24.13,0-14.75,4.2-24.22a29.68,29.68,0,0,1,12.1-14.12q7.92-4.67,18.94-4.66a42,42,0,0,1,21.19,5.36,39.52,39.52,0,0,1,14.9,15q5.5,9.63,5.51,22.67t-5.51,22.82a39,39,0,0,1-14.9,14.9,42.6,42.6,0,0,1-21.19,5.28M1481,878.8V765.19h23.13v17.07l-.47,24.83,1.55,24.68v47Z"/><path class="cls-6" d="M1629.54,849.93q-14.28,0-25.07-5.59a41.17,41.17,0,0,1-16.68-15.28,41.75,41.75,0,0,1-5.9-22.12,42.48,42.48,0,0,1,5.82-22.28,41.33,41.33,0,0,1,15.91-15.21,49.83,49.83,0,0,1,44.94-.31,39.08,39.08,0,0,1,15.6,14.9q5.73,9.71,5.74,23.21c0,.93-.05,2-.16,3.18s-.21,2.3-.31,3.34H1601.6V799.64h55.11l-9.32,4.19a23.22,23.22,0,0,0-2.64-11.33,19.4,19.4,0,0,0-7.29-7.53,21.18,21.18,0,0,0-10.87-2.71,21.6,21.6,0,0,0-10.94,2.71,19,19,0,0,0-7.37,7.61,23.89,23.89,0,0,0-2.64,11.56v3.73a23.47,23.47,0,0,0,3,12,19.83,19.83,0,0,0,8.54,7.92,29,29,0,0,0,13,2.71,31.31,31.31,0,0,0,11.72-2,28.57,28.57,0,0,0,9.24-6l12.88,14a37.6,37.6,0,0,1-14.44,10,53.32,53.32,0,0,1-20,3.49"/><path class="cls-6" d="M1686,848.69V765.18h23.13v23.6l-3.26-6.83a26.82,26.82,0,0,1,11.95-13.43q8.22-4.57,20-4.58v22.35c-1-.1-2-.18-2.79-.23s-1.71-.08-2.64-.08q-9.93,0-16.06,5.67t-6.14,17.62v39.42Z"/><path class="cls-6" d="M1798.11,848.69V832.4l-1.55-3.57V799.64q0-7.75-4.74-12.11t-14.51-4.34a42,42,0,0,0-13.11,2.1,34.52,34.52,0,0,0-11,5.66L1744.56,774a52.46,52.46,0,0,1,16.45-7.45,73.66,73.66,0,0,1,19.56-2.64q19.1,0,29.65,9t10.55,28.1v47.65Zm-25.45,1.24a38.7,38.7,0,0,1-16.77-3.33,25.57,25.57,0,0,1-10.71-9.08,24.68,24.68,0,0,1-.08-25.93q3.66-5.58,11.57-8.77t20.64-3.18h22.2v14.13H1780q-8.54,0-11.72,2.79a8.91,8.91,0,0,0-3.18,7,8.69,8.69,0,0,0,3.65,7.37q3.65,2.72,10,2.71a20.75,20.75,0,0,0,10.87-2.87,16.45,16.45,0,0,0,7-8.46l3.72,11.18a21.59,21.59,0,0,1-9.62,12.26q-7,4.2-18,4.19"/><path class="cls-6" d="M1760.13,545.21a6.22,6.22,0,0,0-3.63-7.15c-14.19-5.93-47.59-15.42-83.88-1.9-49.57,18.48-65.35,70.23-69.09,88a6.22,6.22,0,0,0,4.37,7.28c18.83,5.38,72,17.63,112.76-14.21,26.95-21.07,35.45-54.8,39.47-72"/><path class="cls-11" d="M1730.63,557.36c-1.39-2.46-4.23-3.5-6.35-2.31L1635.86,605c.05-.16.09-.32.14-.48a58.2,58.2,0,0,1,6-13.68c.54-.88,1.1-1.76,1.71-2.65a58,58,0,0,1,5.45-6.82,72.2,72.2,0,0,1,22.16-15.92,5.28,5.28,0,1,0-4.53-9.53c-12.66,6-22.81,14.09-30.22,24.06-.55.73-1.08,1.48-1.6,2.23a67.08,67.08,0,0,0-5.19,9.07,82.8,82.8,0,0,0-6.31,20.33c0,.16-.06.3-.09.45l-17.89,10.11c-2.12,1.19-2.7,4.16-1.31,6.62s4.23,3.49,6.34,2.3l46.35-26.17c.44.17.87.34,1.32.5,8.78,3.23,18.77,6.07,31.23,5.38,13.3-.76,26.42-5.37,39-13.67a5.28,5.28,0,1,0-5.82-8.81c-11,7.24-22.33,11.25-33.75,11.91a57,57,0,0,1-18.07-1.89l-1.46-.42L1729.32,564c2.11-1.2,2.7-4.16,1.31-6.62"/></svg>