<svg id="Capa_1" data-name="Capa 1" xmlns="http://www.w3.org/2000/svg" viewBox="0 0 940 1080"><path d="M327.48,692.5a5.73,5.73,0,0,0-7.86,2.94L214.29,947.66h0c42.92,18,92.28-2.27,111.42-40.75l87.58-210.62a321.37,321.37,0,0,1-51.25,2.2C342.09,697.65,332.29,695,327.48,692.5Z"/><path d="M373.73,124c-38.72,0-70.12,30.84-70.12,68.87s31.4,68.88,70.12,68.88,70.14-30.84,70.14-68.88S412.47,124,373.73,124Zm47.93,61.2c0,21.29-17.66,38.56-39.43,38.56s-39.42-17.27-39.42-38.56,17.66-38.54,39.42-38.54a40.14,40.14,0,0,1,11.63,1.71,20,20,0,0,1,8.08-1.71,19.5,19.5,0,0,1,19.72,19.27,18.76,18.76,0,0,1-1.75,7.91A37.44,37.44,0,0,1,421.66,185.16Z"/><path d="M678.61,163.49a8.69,8.69,0,0,1-9.86,10.89,256.07,256.07,0,0,0-94,1c-38.08,7.53-75.94,29.15-97.46,43.1a8.7,8.7,0,0,1-13.38-8.39c4.16-32.67-6.43-64.64-29.31-85.26a90.32,90.32,0,0,0-41.93-21c-7.7-1.64-9.31-11.94-2.57-16A355.8,355.8,0,0,1,691.59,57.25a8.74,8.74,0,0,1,4.13,13.48,107.16,107.16,0,0,0-17.32,35.34,108.71,108.71,0,0,0,.21,57.42"/><path d="M802.41,219.18a8.68,8.68,0,0,1-14.37,5c-3.54-3.12-7.36-6.26-11.46-9.32a189.79,189.79,0,0,0-73.53-33.2,8.54,8.54,0,0,1-6.29-5.67c-4.79-14.45-12.51-48.14,4.22-81.6a113.31,113.31,0,0,1,13.43-20.2,8.68,8.68,0,0,1,10.42-2.36c14.82,6.95,46,25,65.07,63.06,16.74,33.46,15.56,65.34,12.51,84.25"/><path d="M387,693c95.19,0,175-79.9,175-175.09v-28c0-108.61-88-196.66-196.66-196.66H316v1.18A131,131,0,0,1,413.54,421v140.8A131,131,0,0,1,326.29,685.3S349,693,387,693Z"/><path d="M272.61,692.77h0A130.93,130.93,0,0,0,403.54,561.83V421A130.94,130.94,0,0,0,272.61,290.08a8.34,8.34,0,0,0-8.34,8.35v386a8.33,8.33,0,0,0,8.34,8.34"/><path d="M272.46,681,182.84,905.65a76.37,76.37,0,0,0,40,7.29L321,681H272.46Z"/></svg>