<svg id="Capa_1" data-name="Capa 1" xmlns="http://www.w3.org/2000/svg" viewBox="0 0 940 1080"><defs><style>.cls-1{fill:#007cc5;}.cls-2{fill:#1c0c43;}.cls-3{fill:#fff;}.cls-4{fill:#f18700;}</style></defs><path class="cls-1" d="M184.9,905.73h0A84.24,84.24,0,0,0,296.5,864L428.6,574.27,352,539.32Z"/><path class="cls-2" d="M205.32,960.39h0a84.24,84.24,0,0,0,111.6-41.71L449,628.93,372.37,594Z"/><path class="cls-1" d="M303.61,192.83c0-38,31.4-68.87,70.12-68.87s70.14,30.84,70.14,68.87-31.4,68.88-70.14,68.88-70.12-30.84-70.12-68.88"/><path class="cls-2" d="M342.81,185.16c0-21.28,17.66-38.54,39.42-38.54s39.43,17.26,39.43,38.54S404,223.72,382.23,223.72s-39.42-17.27-39.42-38.56"/><path class="cls-3" d="M382.23,165.89a19.72,19.72,0,1,1,19.71,19.27,19.5,19.5,0,0,1-19.71-19.27"/><path class="cls-4" d="M678.61,163.49a8.69,8.69,0,0,1-9.86,10.89,256.07,256.07,0,0,0-94,1c-38.08,7.53-75.94,29.15-97.46,43.1a8.7,8.7,0,0,1-13.38-8.39c4.16-32.67-6.43-64.64-29.31-85.26a90.32,90.32,0,0,0-41.93-21c-7.7-1.64-9.31-11.94-2.57-16A355.8,355.8,0,0,1,691.59,57.25a8.74,8.74,0,0,1,4.13,13.48,107.16,107.16,0,0,0-17.32,35.34,108.71,108.71,0,0,0,.21,57.42"/><path class="cls-2" d="M802.41,219.18a8.68,8.68,0,0,1-14.37,5c-3.54-3.12-7.36-6.26-11.46-9.32a189.79,189.79,0,0,0-73.53-33.2,8.54,8.54,0,0,1-6.29-5.67c-4.79-14.45-12.51-48.14,4.22-81.6a113.31,113.31,0,0,1,13.43-20.2,8.68,8.68,0,0,1,10.42-2.36c14.82,6.95,46,25,65.07,63.06,16.74,33.46,15.56,65.34,12.51,84.25"/><path class="cls-1" d="M337.35,690.26h48.33A172.35,172.35,0,0,0,558,517.91v-28c0-108.61-88-196.66-196.66-196.66H312V664.94a25.32,25.32,0,0,0,25.32,25.32"/><path class="cls-2" d="M283.71,693.08h0A130.93,130.93,0,0,0,414.65,562.14V421.34A130.94,130.94,0,0,0,283.71,290.39a8.34,8.34,0,0,0-8.34,8.35v386a8.34,8.34,0,0,0,8.34,8.34"/></svg>